{"asset":{"version":"2.0","generator":"Blockbench 4.10.4 glTF exporter"},"scenes":[{"nodes":[2],"name":"blockbench_export"}],"scene":0,"nodes":[{"translation":[0.006837337859353955,1.650032494470793,4.612295973101255e-8],"name":"root2"},{"translation":[0.0068374189296769965,0.4591403881608771,-4.104943428749619e-8],"name":"pyramid","mesh":0},{"children":[0,1]}],"bufferViews":[{"buffer":0,"byteOffset":0,"byteLength":32172,"target":34962,"byteStride":12},{"buffer":0,"byteOffset":32172,"byteLength":32172,"target":34962,"byteStride":12},{"buffer":0,"byteOffset":64344,"byteLength":21448,"target":34962,"byteStride":8},{"buffer":0,"byteOffset":85792,"byteLength":4604,"target":34963},{"buffer":0,"byteOffset":90396,"byteLength":168,"target":34963},{"buffer":0,"byteOffset":90564,"byteLength":2016,"target":34963},{"buffer":0,"byteOffset":92580,"byteLength":336,"target":34963}],"buffers":[{"byteLength":92916,"uri":"data:application/octet-stream;base64,"}],"accessors":[{"bufferView":0,"componentType":5126,"count":2681,"max":[0.914069414138794,1.5677677392959595,0.6935121417045593],"min":[-0.7315995693206787,-0.4569060504436493,-0.6935120820999146],"type":"VEC3"},{"bufferView":1,"componentType":5126,"count":2681,"max":[1,1,1],"min":[-1,-1,-1],"type":"VEC3"},{"bufferView":2,"componentType":5126,"count":2681,"max":[0.9653269648551941,1],"min":[0,0],"type":"VEC2"},{"bufferView":3,"componentType":5123,"count":2301,"max":[1720],"min":[0],"type":"SCALAR"},{"bufferView":4,"componentType":5123,"count":84,"max":[1776],"min":[1721],"type":"SCALAR"},{"bufferView":5,"componentType":5123,"count":1008,"max":[2560],"min":[1777],"type":"SCALAR"},{"bufferView":6,"componentType":5123,"count":168,"max":[2680],"min":[2561],"type":"SCALAR"}],"materials":[{"pbrMetallicRoughness":{"metallicFactor":0,"roughnessFactor":1,"baseColorTexture":{"index":0}},"alphaMode":"MASK","alphaCutoff":0.05,"doubleSided":true},{"pbrMetallicRoughness":{"metallicFactor":0,"roughnessFactor":1,"baseColorTexture":{"index":1}},"alphaMode":"MASK","alphaCutoff":0.05,"doubleSided":true},{"pbrMetallicRoughness":{"metallicFactor":0,"roughnessFactor":1,"baseColorTexture":{"index":2}},"alphaMode":"MASK","alphaCutoff":0.05,"doubleSided":true}],"textures":[{"sampler":0,"source":0,"name":"texture.png"},{"sampler":1,"source":1,"name":"texture"},{"sampler":2,"source":2,"name":"texture"}],"samplers":[{"magFilter":9728,"minFilter":9728,"wrapS":33071,"wrapT":33071},{"magFilter":9728,"minFilter":9728,"wrapS":33071,"wrapT":33071},{"magFilter":9728,"minFilter":9728,"wrapS":33071,"wrapT":33071}],"images":[{"mimeType":"image/png","uri":"data:image/png;base64,"},{"mimeType":"image/png","uri":"data:image/png;base64,"},{"mimeType":"image/png","uri":"data:image/png;base64,"}],"meshes":[{"primitives":[{"mode":4,"attributes":{"POSITION":0,"NORMAL":1,"TEXCOORD_0":2},"indices":3,"material":0},{"mode":4,"attributes":{"POSITION":0,"NORMAL":1,"TEXCOORD_0":2},"indices":4,"material":1},{"mode":4,"attributes":{"POSITION":0,"NORMAL":1,"TEXCOORD_0":2},"indices":5,"material":0},{"mode":4,"attributes":{"POSITION":0,"NORMAL":1,"TEXCOORD_0":2},"indices":6,"material":2}]}]}